<?xml version="1.0" encoding="UTF-8" standalone="no"?>
<!-- Created with Inkscape (http://www.inkscape.org/) -->

<svg
   xmlns:dc="http://purl.org/dc/elements/1.1/"
   xmlns:cc="http://creativecommons.org/ns#"
   xmlns:rdf="http://www.w3.org/1999/02/22-rdf-syntax-ns#"
   xmlns:svg="http://www.w3.org/2000/svg"
   xmlns="http://www.w3.org/2000/svg"
   xmlns:sodipodi="http://sodipodi.sourceforge.net/DTD/sodipodi-0.dtd"
   xmlns:inkscape="http://www.inkscape.org/namespaces/inkscape"
   width="256"
   height="256"
   id="svg3188"
   version="1.1"
   inkscape:version="0.91 r13725"
   sodipodi:docname="accesibilidad.svg">
  <defs
     id="defs3190" />
  <sodipodi:namedview
     id="base"
     pagecolor="#ffffff"
     bordercolor="#666666"
     borderopacity="1.0"
     inkscape:pageopacity="0.0"
     inkscape:pageshadow="2"
     inkscape:zoom="0.9899495"
     inkscape:cx="-158.38758"
     inkscape:cy="35.336682"
     inkscape:document-units="px"
     inkscape:current-layer="layer1"
     showgrid="false"
     fit-margin-top="0"
     fit-margin-left="0"
     fit-margin-right="0"
     fit-margin-bottom="0"
     inkscape:window-width="1913"
     inkscape:window-height="1030"
     inkscape:window-x="0"
     inkscape:window-y="24"
     inkscape:window-maximized="1" />
  <metadata
     id="metadata3193">
    <rdf:RDF>
      <cc:Work
         rdf:about="">
        <dc:format>image/svg+xml</dc:format>
        <dc:type
           rdf:resource="http://purl.org/dc/dcmitype/StillImage" />
        <dc:title></dc:title>
      </cc:Work>
    </rdf:RDF>
  </metadata>
  <g
     inkscape:label="Capa 1"
     inkscape:groupmode="layer"
     id="layer1"
     transform="translate(374.59767,787.3066)">
    <rect
       style="fill:#ffb380;fill-opacity:1;stroke:none"
       id="rect8672-7-4-5-8-1-9-7-1-6-3-7"
       width="240.84392"
       height="225.27495"
       x="-367.74036"
       y="-771.01074"
       ry="31.6502" />
    <path
       style="fill:#cd9067;fill-opacity:1;stroke:none"
       d="m -319.42236,-704.89248 -47.52735,55.35381 -0.52126,66.86912 c -1.24512,23.9359 14.99236,39.76982 44.30997,37.41721 l 79.47117,-0.56313 55.30607,-48.65901 c -6.05864,-12.38152 -0.85407,-15.56558 -14.06211,-10.58432 l -59.91597,-73.18248 z"
       id="path8889-0-6-5-6-6-4-7-0-3-3-6"
       inkscape:connector-curvature="0"
       sodipodi:nodetypes="ccccccccc" />
    <path
       sodipodi:type="arc"
       style="fill:#0055d4;fill-opacity:1;stroke:none"
       id="path3187-0-1"
       sodipodi:cx="-247.95703"
       sodipodi:cy="-657.08881"
       sodipodi:rx="86.66317"
       sodipodi:ry="84.59977"
       d="m -161.54438,-663.51671 a 86.66317,84.59977 0 0 1 -79.3561,90.74676 86.66317,84.59977 0 0 1 -93.39212,-76.96989 86.66317,84.59977 0 0 1 78.33593,-91.58754 86.66317,84.59977 0 0 1 94.24783,75.96943"
       sodipodi:start="6.2071318"
       sodipodi:end="6.1852847"
       sodipodi:open="true" />
    <path
       style="display:inline;overflow:visible;visibility:visible;fill:#ffffff;fill-opacity:1;stroke:none;stroke-width:2;marker:none"
       d="m -247.38464,-728.24675 c 11.13265,0 20.15552,9.02287 20.15552,20.15553 0,11.13242 -9.02287,20.15528 -20.15552,20.15528 -11.13269,0 -20.15555,-9.02286 -20.15555,-20.15528 0,-11.13266 9.02286,-20.15553 20.15555,-20.15553 z"
       id="path3157-0-3"
       inkscape:connector-curvature="0" />
    <path
       style="display:inline;overflow:visible;visibility:visible;fill:#ffffff;fill-opacity:1;stroke:none;stroke-width:2;marker:none"
       d="m -301.78501,-684.11801 c 36.78057,-0.52511 73.55669,-0.17798 110.33656,0.12946 0,0 4.9426,-0.0915 4.9426,4.86417 l 0,2.39292 c 0,2.59013 -2.7024,3.30366 -2.7024,3.30366 l -39.54301,4.56553 1.54713,26.27818 19.29402,44.80691 c 1.56916,2.58917 -1.81666,3.32857 -1.81666,3.32857 l -6.03894,0.0567 c -2.90393,0 -3.99261,-2.44358 -3.99261,-2.44358 l -23.76339,-41.1952 c -2.54957,-5.78201 -2.70891,-5.04478 -5.12193,0 l -24.87793,41.13408 c -0.83205,2.49626 -4.07868,2.55079 -4.07868,2.55079 l -6.5414,-0.1023 c 0,0 -2.39124,-0.0699 -1.84256,-2.39942 l 21.54881,-46.37764 0.29513,-26.90449 -39.09949,-3.04544 c -2.66617,-0.90269 -3.77183,-3.37598 -3.77183,-3.37598 l 0,-2.49626 c 0,0 -0.1118,-5.08631 5.22658,-5.08631 z"
       id="path3850-9-7"
       inkscape:connector-curvature="0"
       sodipodi:nodetypes="ccsscccccccccccccccccccc" />
  </g>
</svg>
