<?xml version="1.0" encoding="UTF-8" standalone="no"?>
<!-- Created with Inkscape (http://www.inkscape.org/) -->

<svg
   xmlns:dc="http://purl.org/dc/elements/1.1/"
   xmlns:cc="http://creativecommons.org/ns#"
   xmlns:rdf="http://www.w3.org/1999/02/22-rdf-syntax-ns#"
   xmlns:svg="http://www.w3.org/2000/svg"
   xmlns="http://www.w3.org/2000/svg"
   xmlns:sodipodi="http://sodipodi.sourceforge.net/DTD/sodipodi-0.dtd"
   xmlns:inkscape="http://www.inkscape.org/namespaces/inkscape"
   width="256"
   height="256"
   id="svg2"
   sodipodi:version="0.32"
   inkscape:version="0.48.5 r10040"
   sodipodi:docname="squeak-logo.svg"
   version="1.0">
  <defs
     id="defs4" />
  <sodipodi:namedview
     id="base"
     pagecolor="#ffffff"
     bordercolor="#666666"
     borderopacity="1.0"
     gridtolerance="10000"
     guidetolerance="10"
     objecttolerance="10"
     inkscape:pageopacity="0.0"
     inkscape:pageshadow="2"
     inkscape:zoom="0.62015625"
     inkscape:cx="-82.156716"
     inkscape:cy="101.05735"
     inkscape:document-units="px"
     inkscape:current-layer="layer1"
     inkscape:window-width="1913"
     inkscape:window-height="1026"
     inkscape:window-x="0"
     inkscape:window-y="25"
     width="320px"
     height="250px"
     showgrid="false"
     inkscape:window-maximized="1" />
  <metadata
     id="metadata7">
    <rdf:RDF>
      <cc:Work
         rdf:about="">
        <dc:format>image/svg+xml</dc:format>
        <dc:type
           rdf:resource="http://purl.org/dc/dcmitype/StillImage" />
      </cc:Work>
    </rdf:RDF>
  </metadata>
  <g
     inkscape:label="Layer 1"
     inkscape:groupmode="layer"
     id="layer1"
     transform="translate(0,6)">
    <g
       id="g15504"
       transform="matrix(0.84752351,0,0,0.84752351,-203.61058,-89.266813)">
      <path
         transform="matrix(1,0,0,1.088889,22.80531,-108.8697)"
         d="m 390.45459,385.13403 c 0,8.58752 -9.74618,15.54908 -21.76871,15.54908 -12.02252,0 -21.7687,-6.96156 -21.7687,-15.54908 0,-8.58751 9.74618,-15.54907 21.7687,-15.54907 12.02253,0 21.76871,6.96156 21.76871,15.54907 z"
         sodipodi:ry="15.549077"
         sodipodi:rx="21.768707"
         sodipodi:cy="385.13403"
         sodipodi:cx="368.68588"
         id="path14615"
         style="fill:#280b0b;fill-opacity:1;stroke:#000000;stroke-width:0;stroke-linecap:round;stroke-linejoin:round;stroke-miterlimit:4;stroke-opacity:1;stroke-dasharray:none"
         sodipodi:type="arc" />
      <g
         style="stroke:#000000;stroke-opacity:1"
         transform="translate(2.07321,-1.38214)"
         id="g7330">
        <path
           sodipodi:nodetypes="csc"
           id="path5536"
           d="m 419.66296,302.89567 c 0,0 22.92314,-5.93294 47.95148,-5.93629 26.19012,-0.004 67.13773,12.65819 67.13773,12.65819"
           style="fill:none;stroke:#000000;stroke-width:5;stroke-linecap:round;stroke-linejoin:round;stroke-miterlimit:4;stroke-opacity:1;stroke-dasharray:none"
           inkscape:connector-curvature="0" />
        <path
           style="fill:none;stroke:#000000;stroke-width:5;stroke-linecap:round;stroke-linejoin:round;stroke-miterlimit:4;stroke-opacity:1;stroke-dasharray:none"
           d="m 421.80582,313.60996 c -1.01716,-0.25429 25.14418,-4.89736 52.26592,-0.23636 23.38493,4.01881 52.109,23.38683 52.109,23.38683"
           id="path5538"
           sodipodi:nodetypes="csc"
           inkscape:connector-curvature="0" />
        <path
           sodipodi:nodetypes="csc"
           id="path5540"
           d="m 421.09153,329.32425 c 0,0 14.76275,-1.8209 25.95939,-1.65776 25.90528,0.37744 43.41553,18.37965 43.41553,18.37965"
           style="fill:none;stroke:#000000;stroke-width:5;stroke-linecap:round;stroke-linejoin:round;stroke-miterlimit:4;stroke-opacity:1;stroke-dasharray:none"
           inkscape:connector-curvature="0" />
      </g>
      <path
         id="path1966"
         d="m 292.35867,261.46711 c 0,0 -28.34749,-102.41176 -2.61204,-106.65775 25.84078,-4.26336 54.12982,58.37965 54.12982,58.37965"
         style="fill:none;stroke:#000000;stroke-width:5;stroke-linecap:round;stroke-linejoin:round;stroke-miterlimit:4;stroke-opacity:1;stroke-dasharray:none"
         inkscape:connector-curvature="0" />
      <g
         style="stroke:#000000;stroke-opacity:1"
         transform="matrix(-1,0,0,1,780.4669,-2.828427)"
         id="g7335">
        <path
           style="fill:none;stroke:#000000;stroke-width:5;stroke-linecap:round;stroke-linejoin:round;stroke-miterlimit:4;stroke-opacity:1;stroke-dasharray:none"
           d="m 419.66296,302.89567 c 0,0 22.92314,-5.93294 47.95148,-5.93629 26.19012,-0.004 67.13773,12.65819 67.13773,12.65819"
           id="path7337"
           sodipodi:nodetypes="csc"
           inkscape:connector-curvature="0" />
        <path
           sodipodi:nodetypes="csc"
           id="path7339"
           d="m 421.80582,313.60996 c -1.01716,-0.25429 25.14418,-4.89736 52.26592,-0.23636 23.38493,4.01881 52.109,23.38683 52.109,23.38683"
           style="fill:none;stroke:#000000;stroke-width:5;stroke-linecap:round;stroke-linejoin:round;stroke-miterlimit:4;stroke-opacity:1;stroke-dasharray:none"
           inkscape:connector-curvature="0" />
        <path
           style="fill:none;stroke:#000000;stroke-width:5;stroke-linecap:round;stroke-linejoin:round;stroke-miterlimit:4;stroke-opacity:1;stroke-dasharray:none"
           d="m 421.09153,329.32425 c 0,0 14.76275,-1.8209 25.95939,-1.65776 25.90528,0.37744 43.41553,18.37965 43.41553,18.37965"
           id="path7341"
           sodipodi:nodetypes="csc"
           inkscape:connector-curvature="0" />
      </g>
      <path
         sodipodi:type="arc"
         style="fill:#000000;fill-opacity:1;stroke:none"
         id="path7322"
         sodipodi:cx="357.5"
         sodipodi:cy="258.86218"
         sodipodi:rx="18.5"
         sodipodi:ry="22.5"
         d="m 376,258.86218 c 0,12.42641 -8.28273,22.5 -18.5,22.5 -10.21727,0 -18.5,-10.07359 -18.5,-22.5 0,-12.4264 8.28273,-22.5 18.5,-22.5 10.21727,0 18.5,10.0736 18.5,22.5 z"
         transform="matrix(0.993243,0,0,0.991667,67.54054,4.094685)" />
      <path
         transform="matrix(0.993243,0,0,0.991667,2.165541,1.219685)"
         d="m 376,258.86218 c 0,12.42641 -8.28273,22.5 -18.5,22.5 -10.21727,0 -18.5,-10.07359 -18.5,-22.5 0,-12.4264 8.28273,-22.5 18.5,-22.5 10.21727,0 18.5,10.0736 18.5,22.5 z"
         sodipodi:ry="22.5"
         sodipodi:rx="18.5"
         sodipodi:cy="258.86218"
         sodipodi:cx="357.5"
         id="path7320"
         style="fill:#000000;fill-opacity:1;stroke:none"
         sodipodi:type="arc" />
      <path
         style="fill:none;stroke:#000000;stroke-width:5;stroke-linecap:round;stroke-linejoin:round;stroke-miterlimit:4;stroke-opacity:1;stroke-dasharray:none"
         d="m 486.18074,260.75282 c 0,0 28.34749,-102.41176 2.61204,-106.65775 -25.84078,-4.26336 -54.12982,58.37965 -54.12982,58.37965"
         id="path5519"
         inkscape:connector-curvature="0" />
      <path
         transform="matrix(1.646204,0,0,1.178518,-237.5712,-44.26758)"
         d="m 367.85714,254.86218 c 0,3.74765 -1.27918,6.78572 -2.85714,6.78572 -1.57796,0 -2.85714,-3.03807 -2.85714,-6.78572 0,-3.74764 1.27918,-6.78571 2.85714,-6.78571 1.57796,0 2.85714,3.03807 2.85714,6.78571 z"
         sodipodi:ry="6.7857141"
         sodipodi:rx="2.8571429"
         sodipodi:cy="254.86218"
         sodipodi:cx="365"
         id="path5544"
         style="fill:#ffffff;fill-opacity:1;stroke:none"
         sodipodi:type="arc" />
      <path
         sodipodi:type="arc"
         style="fill:#ffffff;fill-opacity:1;stroke:none"
         id="path7318"
         sodipodi:cx="365"
         sodipodi:cy="254.86218"
         sodipodi:rx="2.8571429"
         sodipodi:ry="6.7857141"
         d="m 367.85714,254.86218 c 0,3.74765 -1.27918,6.78572 -2.85714,6.78572 -1.57796,0 -2.85714,-3.03807 -2.85714,-6.78572 0,-3.74764 1.27918,-6.78571 2.85714,-6.78571 1.57796,0 2.85714,3.03807 2.85714,6.78571 z"
         transform="matrix(1.646204,0,0,1.178518,-172.4725,-41.68608)" />
    </g>
  </g>
</svg>
